<svg width="12" height="12" viewBox="0 0 23 19" fill="none" xmlns="http://www.w3.org/2000/svg">
<path d="M1.98583 1.47496L6.53509 5.6075L10.5882 0.455399C10.7017 0.311366 10.8452 0.195621 11.008 0.116786C11.1708 0.0379508 11.3488 -0.00194395 11.5286 7.2827e-05C11.7085 0.00208961 11.8855 0.0459659 12.0467 0.128434C12.2078 0.210903 12.3488 0.329838 12.4593 0.476383L16.327 5.60627L21.0234 1.41448C21.2078 1.2502 21.4364 1.148 21.6786 1.12155C21.9209 1.0951 22.1652 1.14566 22.3788 1.26648C22.5924 1.38729 22.7652 1.57259 22.874 1.79757C22.9829 2.02255 23.0225 2.27648 22.9877 2.52537L21.1943 15.297H1.83399L0.0130907 2.58339C-0.0230795 2.33311 0.0161331 2.0774 0.125418 1.8509C0.234702 1.62439 0.408778 1.43804 0.624067 1.31707C0.839356 1.19611 1.08545 1.14638 1.32903 1.17462C1.57261 1.20286 1.80189 1.30771 1.98583 1.47496ZM1.92725 16.5313H21.0568V17.7657C21.0568 18.093 20.9309 18.407 20.7067 18.6385C20.4824 18.87 20.1783 19 19.8612 19H3.12285C2.80575 19 2.50165 18.87 2.27743 18.6385C2.05321 18.407 1.92725 18.093 1.92725 17.7657V16.5313Z" fill="#FFC700"/>
</svg>
